<?xml version="1.0" encoding="UTF-8"?><svg id="Layer_1" xmlns="http://www.w3.org/2000/svg" viewBox="0 0 802.53 105.8"><path d="M0,58.83c0-17.65,15.17-31.74,32.05-31.74,4.18,0,7.12.77,9.29,1.08v30.34c-1.08-.62-2.32-1.39-4.64-1.39-4.64,0-7.74,3.25-7.74,9.29v37.77H0v-45.36Z" fill="#231f20"/><path d="M50.78,66.11c0-51.71,78.03-51.71,78.03.31s-78.03,52.48-78.03-.31ZM79.57,65.95c0,14.24,20.9,14.55,20.9.62s-20.9-13.93-20.9-.62Z" fill="#231f20"/><path d="M142.42,28.8h27.87v43.66c0,3.87,2.01,6.5,5.57,6.5,3.25,0,5.73-2.79,5.73-6.5V28.8h27.87v43.19c0,18.27-14.86,33.75-32.82,33.75-19.04,0-34.21-14.55-34.21-36.07V28.8Z" fill="#231f20"/><path d="M292.44,104.19h-27.87v-42.57c0-3.87-2.17-6.5-5.73-6.5-3.25,0-5.57,2.94-5.57,6.5v42.57h-27.87v-42.11c0-19.97,15.02-34.83,32.67-34.83,18.73,0,34.37,13.93,34.37,37.16v39.79Z" fill="#231f20"/><path d="M356.53.93h27.87v62.86c0,26.63-18.42,41.96-39.01,41.96s-39.32-15.48-39.32-40.41c0-19.35,17.49-38.08,38.7-38.08,2.48,0,5.42.46,7.59.62v31.27c-1.55-.93-3.41-2.17-6.04-2.17-7.28,0-10.53,5.88-10.53,9.6,0,7.74,4.95,11.3,10.37,11.3,3.72,0,7.28-2.01,8.98-5.11,1.7-3.1,1.39-6.35,1.39-8.98V.93Z" fill="#231f20"/><path d="M447.55,69.36c0-8.21-5.11-12.08-10.53-12.08-6.35,0-10.84,5.11-10.84,10.37,0,6.04,4.8,10.84,10.22,10.84,3.72,0,5.26-.93,7.59-2.63v29.26c-2.94.46-5.26.62-7.43.62-19.2,0-38.7-16.1-38.7-40.41,0-19.97,16.88-38.08,39.17-38.08s39.48,18.27,39.48,39.01v37.93h-28.95v-34.83Z" fill="#231f20"/><path d="M520.16,65.49c0,8.67,5.26,12.39,10.22,12.39,5.88,0,10.84-4.64,10.84-10.68s-5.11-10.68-10.84-10.68c-2.48,0-4.64,1.39-6.19,2.32v-30.96c1.86-.31,4.33-.62,6.81-.62,21.37,0,39.32,17.18,39.32,38.7s-16.88,39.79-39.63,39.79c-18.27,0-38.39-15.17-38.39-40.25V.93h27.87v64.56Z" fill="#231f20"/><path d="M646.48,96.91c-7.59,5.88-16.41,8.82-25.08,8.82-21.52,0-39.63-17.18-39.63-40.1,0-20.44,17.96-38.39,39.17-38.39s39.32,17.34,39.32,38.55c0,2.01,0,3.25-.16,5.26h-44.12c-.46-1.39-1.08-3.41-1.08-5.57,0-3.72.77-6.04,1.39-7.74h15.64c-1.08-5.57-5.11-8.36-9.91-8.36-6.81,0-12.39,6.19-12.39,15.95,0,10.84,6.5,16.72,12.08,16.72,3.56,0,6.19-2.17,8.51-4.64l16.26,19.51Z" fill="#231f20"/><path d="M718,69.36c0-8.21-5.11-12.08-10.53-12.08-6.35,0-10.84,5.11-10.84,10.37,0,6.04,4.8,10.84,10.22,10.84,3.72,0,5.26-.93,7.59-2.63v29.26c-2.94.46-5.26.62-7.43.62-19.2,0-38.7-16.1-38.7-40.41,0-19.97,16.88-38.08,39.17-38.08s39.48,18.27,39.48,39.01v37.93h-28.95v-34.83Z" fill="#231f20"/><path d="M789.37,0v28.8h12.54v29.88h-12.69c0,4.49-.16,7.9,2.63,11.46,2.79,3.56,6.35,4.33,10.68,4.33v29.72c-.77,0-1.39.15-2.17.15-20.75,0-39.32-16.26-39.32-40.41V0h28.33Z" fill="#231f20"/></svg>